<svg width="103" height="142" viewBox="0 0 103 142" fill="none" xmlns="http://www.w3.org/2000/svg">
<path fill-rule="evenodd" clip-rule="evenodd" d="M27.625 97.75C33.8244 97.75 39.77 95.2873 44.1536 90.9036C48.5373 86.52 51 80.5744 51 74.375C51 68.1756 48.5373 62.23 44.1536 57.8464C39.77 53.4627 33.8244 51 27.625 51C21.4256 51 15.48 53.4627 11.0964 57.8464C6.71272 62.23 4.25 68.1756 4.25 74.375C4.25 80.5744 6.71272 86.52 11.0964 90.9036C15.48 95.2873 21.4256 97.75 27.625 97.75ZM27.625 59.5297C28.1886 59.5297 28.7291 59.7536 29.1276 60.1521C29.5261 60.5507 29.75 61.0912 29.75 61.6547V72.25H40.3453C40.9088 72.25 41.4493 72.4739 41.8479 72.8724C42.2464 73.2709 42.4703 73.8114 42.4703 74.375C42.4703 74.9386 42.2464 75.4791 41.8479 75.8776C41.4493 76.2761 40.9088 76.5 40.3453 76.5H29.75V87.0953C29.75 87.6588 29.5261 88.1993 29.1276 88.5979C28.7291 88.9964 28.1886 89.2203 27.625 89.2203C27.0614 89.2203 26.5209 88.9964 26.1224 88.5979C25.7239 88.1993 25.5 87.6588 25.5 87.0953V76.5H14.9047C14.3412 76.5 13.8007 76.2761 13.4021 75.8776C13.0036 75.4791 12.7797 74.9386 12.7797 74.375C12.7797 73.8114 13.0036 73.2709 13.4021 72.8724C13.8007 72.4739 14.3412 72.25 14.9047 72.25H25.5V61.6547C25.5 61.0912 25.7239 60.5507 26.1224 60.1521C26.5209 59.7536 27.0614 59.5297 27.625 59.5297Z" fill="#2B3B55"/>
<path d="M18.2451 43.5625V26.5625C18.2451 22.6174 19.8123 18.8339 22.6019 16.0443C25.3915 13.2547 29.175 11.6875 33.1201 11.6875H43.5241C45.6454 11.6873 47.7423 12.1409 49.6739 13.0177M49.6739 13.0177C51.2985 13.7564 52.7813 14.7814 54.0429 16.0438L79.4069 41.4162C80.6819 42.6912 81.7019 44.1618 82.4286 45.7725M49.6739 13.0177L49.6781 37.2725C49.6781 39.5268 50.5737 41.6888 52.1677 43.2829C53.7618 44.877 55.9238 45.7725 58.1781 45.7725H82.4286M58.4416 90.3125H68.8881C72.8332 90.3125 76.6167 88.7453 79.4063 85.9557C82.1959 83.1661 83.7631 79.3826 83.7631 75.4375V51.935C83.7631 49.7888 83.2999 47.6893 82.4286 45.7725" stroke="#2B3B55" stroke-width="6.375" stroke-linecap="round" stroke-linejoin="round"/>
<path d="M17.824 135.52H12.96L12.064 138H10.528L14.56 126.912H16.24L20.256 138H18.72L17.824 135.52ZM17.408 134.336L15.392 128.704L13.376 134.336H17.408ZM26.2853 129.072C27.3519 129.072 28.2159 129.397 28.8773 130.048C29.5386 130.688 29.8693 131.616 29.8693 132.832V138H28.4293V133.04C28.4293 132.165 28.2106 131.499 27.7733 131.04C27.3359 130.571 26.7386 130.336 25.9813 130.336C25.2133 130.336 24.5999 130.576 24.1413 131.056C23.6933 131.536 23.4693 132.235 23.4693 133.152V138H22.0133V129.232H23.4693V130.48C23.7573 130.032 24.1466 129.685 24.6373 129.44C25.1386 129.195 25.6879 129.072 26.2853 129.072ZM23.5813 128.288C23.6559 127.744 23.8319 127.328 24.1093 127.04C24.3973 126.752 24.7546 126.608 25.1813 126.608C25.3839 126.608 25.5546 126.645 25.6933 126.72C25.8426 126.784 26.0186 126.88 26.2213 127.008C26.3706 127.115 26.5039 127.2 26.6213 127.264C26.7386 127.317 26.8666 127.344 27.0053 127.344C27.1866 127.344 27.3413 127.285 27.4693 127.168C27.5973 127.051 27.6773 126.88 27.7093 126.656H28.5413C28.4773 127.189 28.3013 127.6 28.0133 127.888C27.7253 128.176 27.3679 128.32 26.9413 128.32C26.7386 128.32 26.5573 128.288 26.3973 128.224C26.2479 128.149 26.0773 128.043 25.8853 127.904C25.7146 127.797 25.5759 127.717 25.4693 127.664C25.3733 127.611 25.2559 127.584 25.1173 127.584C24.9359 127.584 24.7813 127.643 24.6533 127.76C24.5359 127.877 24.4613 128.053 24.4293 128.288H23.5813ZM31.7036 133.584C31.7036 132.688 31.885 131.904 32.2476 131.232C32.6103 130.549 33.1063 130.021 33.7356 129.648C34.3756 129.275 35.085 129.088 35.8636 129.088C36.6316 129.088 37.2983 129.253 37.8636 129.584C38.429 129.915 38.8503 130.331 39.1276 130.832V129.232H40.5996V138H39.1276V136.368C38.8396 136.88 38.4076 137.307 37.8316 137.648C37.2663 137.979 36.605 138.144 35.8476 138.144C35.069 138.144 34.365 137.952 33.7356 137.568C33.1063 137.184 32.6103 136.645 32.2476 135.952C31.885 135.259 31.7036 134.469 31.7036 133.584ZM39.1276 133.6C39.1276 132.939 38.9943 132.363 38.7276 131.872C38.461 131.381 38.0983 131.008 37.6396 130.752C37.1916 130.485 36.6956 130.352 36.1516 130.352C35.6076 130.352 35.1116 130.48 34.6636 130.736C34.2156 130.992 33.8583 131.365 33.5916 131.856C33.325 132.347 33.1916 132.923 33.1916 133.584C33.1916 134.256 33.325 134.843 33.5916 135.344C33.8583 135.835 34.2156 136.213 34.6636 136.48C35.1116 136.736 35.6076 136.864 36.1516 136.864C36.6956 136.864 37.1916 136.736 37.6396 136.48C38.0983 136.213 38.461 135.835 38.7276 135.344C38.9943 134.843 39.1276 134.261 39.1276 133.6ZM42.5161 133.584C42.5161 132.688 42.6975 131.904 43.0601 131.232C43.4228 130.549 43.9188 130.021 44.5481 129.648C45.1881 129.275 45.9028 129.088 46.6921 129.088C47.3748 129.088 48.0095 129.248 48.5961 129.568C49.1828 129.877 49.6308 130.288 49.9401 130.8V126.16H51.4121V138H49.9401V136.352C49.6521 136.875 49.2255 137.307 48.6601 137.648C48.0948 137.979 47.4335 138.144 46.6761 138.144C45.8975 138.144 45.1881 137.952 44.5481 137.568C43.9188 137.184 43.4228 136.645 43.0601 135.952C42.6975 135.259 42.5161 134.469 42.5161 133.584ZM49.9401 133.6C49.9401 132.939 49.8068 132.363 49.5401 131.872C49.2735 131.381 48.9108 131.008 48.4521 130.752C48.0041 130.485 47.5081 130.352 46.9641 130.352C46.4201 130.352 45.9241 130.48 45.4761 130.736C45.0281 130.992 44.6708 131.365 44.4041 131.856C44.1375 132.347 44.0041 132.923 44.0041 133.584C44.0041 134.256 44.1375 134.843 44.4041 135.344C44.6708 135.835 45.0281 136.213 45.4761 136.48C45.9241 136.736 46.4201 136.864 46.9641 136.864C47.5081 136.864 48.0041 136.736 48.4521 136.48C48.9108 136.213 49.2735 135.835 49.5401 135.344C49.8068 134.843 49.9401 134.261 49.9401 133.6ZM54.6246 127.808C54.3473 127.808 54.1126 127.712 53.9206 127.52C53.7286 127.328 53.6326 127.093 53.6326 126.816C53.6326 126.539 53.7286 126.304 53.9206 126.112C54.1126 125.92 54.3473 125.824 54.6246 125.824C54.8913 125.824 55.1153 125.92 55.2966 126.112C55.4886 126.304 55.5846 126.539 55.5846 126.816C55.5846 127.093 55.4886 127.328 55.2966 127.52C55.1153 127.712 54.8913 127.808 54.6246 127.808ZM55.3286 129.232V138H53.8726V129.232H55.3286ZM59.2661 130.656C59.5221 130.155 59.8848 129.765 60.3541 129.488C60.8341 129.211 61.4155 129.072 62.0981 129.072V130.576H61.7141C60.0821 130.576 59.2661 131.461 59.2661 133.232V138H57.8101V129.232H59.2661V130.656ZM78.5885 129.072C79.2712 129.072 79.8792 129.216 80.4125 129.504C80.9458 129.781 81.3672 130.203 81.6765 130.768C81.9858 131.333 82.1405 132.021 82.1405 132.832V138H80.7005V133.04C80.7005 132.165 80.4818 131.499 80.0445 131.04C79.6178 130.571 79.0365 130.336 78.3005 130.336C77.5432 130.336 76.9405 130.581 76.4925 131.072C76.0445 131.552 75.8205 132.251 75.8205 133.168V138H74.3805V133.04C74.3805 132.165 74.1618 131.499 73.7245 131.04C73.2978 130.571 72.7165 130.336 71.9805 130.336C71.2232 130.336 70.6205 130.581 70.1725 131.072C69.7245 131.552 69.5005 132.251 69.5005 133.168V138H68.0445V129.232H69.5005V130.496C69.7885 130.037 70.1725 129.685 70.6525 129.44C71.1432 129.195 71.6818 129.072 72.2685 129.072C73.0045 129.072 73.6552 129.237 74.2205 129.568C74.7858 129.899 75.2072 130.384 75.4845 131.024C75.7298 130.405 76.1352 129.925 76.7005 129.584C77.2658 129.243 77.8952 129.072 78.5885 129.072ZM83.9849 133.584C83.9849 132.688 84.1662 131.904 84.5289 131.232C84.8915 130.549 85.3875 130.021 86.0169 129.648C86.6569 129.275 87.3662 129.088 88.1449 129.088C88.9129 129.088 89.5795 129.253 90.1449 129.584C90.7102 129.915 91.1315 130.331 91.4089 130.832V129.232H92.8809V138H91.4089V136.368C91.1209 136.88 90.6889 137.307 90.1129 137.648C89.5475 137.979 88.8862 138.144 88.1289 138.144C87.3502 138.144 86.6462 137.952 86.0169 137.568C85.3875 137.184 84.8915 136.645 84.5289 135.952C84.1662 135.259 83.9849 134.469 83.9849 133.584ZM91.4089 133.6C91.4089 132.939 91.2755 132.363 91.0089 131.872C90.7422 131.381 90.3795 131.008 89.9209 130.752C89.4729 130.485 88.9769 130.352 88.4329 130.352C87.8889 130.352 87.3929 130.48 86.9449 130.736C86.4969 130.992 86.1395 131.365 85.8729 131.856C85.6062 132.347 85.4729 132.923 85.4729 133.584C85.4729 134.256 85.6062 134.843 85.8729 135.344C86.1395 135.835 86.4969 136.213 86.9449 136.48C87.3929 136.736 87.8889 136.864 88.4329 136.864C88.9769 136.864 89.4729 136.736 89.9209 136.48C90.3795 136.213 90.7422 135.835 91.0089 135.344C91.2755 134.843 91.4089 134.261 91.4089 133.6ZM90.2729 126.752L86.8649 128.576V127.488L90.2729 125.488V126.752ZM98.4454 138.144C97.7734 138.144 97.1707 138.032 96.6374 137.808C96.104 137.573 95.6827 137.253 95.3734 136.848C95.064 136.432 94.8934 135.957 94.8614 135.424H96.3654C96.408 135.861 96.6107 136.219 96.9734 136.496C97.3467 136.773 97.832 136.912 98.4294 136.912C98.984 136.912 99.4214 136.789 99.7414 136.544C100.061 136.299 100.221 135.989 100.221 135.616C100.221 135.232 100.051 134.949 99.7094 134.768C99.368 134.576 98.84 134.389 98.1254 134.208C97.4747 134.037 96.9414 133.867 96.5254 133.696C96.12 133.515 95.768 133.253 95.4694 132.912C95.1814 132.56 95.0374 132.101 95.0374 131.536C95.0374 131.088 95.1707 130.677 95.4374 130.304C95.704 129.931 96.0827 129.637 96.5734 129.424C97.064 129.2 97.624 129.088 98.2534 129.088C99.224 129.088 100.008 129.333 100.605 129.824C101.203 130.315 101.523 130.987 101.565 131.84H100.109C100.077 131.381 99.8907 131.013 99.5494 130.736C99.2187 130.459 98.7707 130.32 98.2054 130.32C97.6827 130.32 97.2667 130.432 96.9574 130.656C96.648 130.88 96.4934 131.173 96.4934 131.536C96.4934 131.824 96.584 132.064 96.7654 132.256C96.9574 132.437 97.192 132.587 97.4694 132.704C97.7574 132.811 98.152 132.933 98.6534 133.072C99.2827 133.243 99.7947 133.413 100.189 133.584C100.584 133.744 100.92 133.989 101.197 134.32C101.485 134.651 101.635 135.083 101.645 135.616C101.645 136.096 101.512 136.528 101.245 136.912C100.979 137.296 100.6 137.6 100.109 137.824C99.6294 138.037 99.0747 138.144 98.4454 138.144Z" fill="#2B3B55"/>
</svg>
