<?xml version="1.0" standalone="no"?>
<!DOCTYPE svg PUBLIC "-//W3C//DTD SVG 20010904//EN"
 "http://www.w3.org/TR/2001/REC-SVG-20010904/DTD/svg10.dtd">
<svg version="1.0" xmlns="http://www.w3.org/2000/svg"
 width="740.000000pt" height="740.000000pt" viewBox="0 0 740.000000 740.000000"
 preserveAspectRatio="xMidYMid meet">
<metadata>
Created by potrace 1.16, written by Peter Selinger 2001-2019
</metadata>
<g transform="translate(0.000000,740.000000) scale(0.100000,-0.100000)"
fill="#000000" stroke="none">
<path d="M2602 6150 c-93 -57 -95 -259 -5 -330 l25 -20 -27 -32 c-16 -18 -34
-32 -42 -30 -8 2 -29 -2 -47 -8 -25 -8 -42 -7 -75 5 -68 24 -116 20 -140 -11
-12 -15 -21 -32 -21 -38 0 -6 6 -2 12 9 25 46 80 58 143 31 l30 -13 -75 -35
c-75 -34 -118 -73 -152 -136 -22 -42 -51 -59 -143 -82 -87 -22 -93 -26 -78
-41 8 -8 26 -6 65 6 29 10 55 21 58 25 3 4 24 17 48 29 31 16 50 36 73 76 17
30 44 64 59 75 29 21 211 100 230 100 35 0 69 -148 50 -219 -10 -39 -33 -71
-49 -71 -5 0 -10 50 -13 110 -2 61 -9 115 -15 121 -8 8 -9 1 -2 -27 12 -53 11
-181 -1 -205 -6 -10 -19 -19 -29 -19 -15 0 -19 12 -24 78 -4 42 -11 91 -17
107 l-10 30 5 -30 c3 -16 8 -66 11 -110 6 -69 4 -83 -10 -98 -33 -33 -49 -14
-61 68 -3 28 -11 57 -17 65 -8 13 -9 12 -5 -1 3 -9 8 -38 12 -65 12 -83 49
-119 77 -74 7 11 21 20 31 20 9 0 25 4 35 9 9 5 29 14 45 20 15 6 32 23 38 38
15 40 69 93 95 93 12 0 27 -7 34 -15 11 -13 10 -20 -8 -43 -12 -15 -35 -49
-51 -77 -90 -154 -93 -156 -251 -166 -63 -3 -130 -12 -149 -18 -19 -6 -35 -10
-36 -8 0 1 -7 25 -14 52 -6 28 -23 69 -37 92 l-24 42 -53 -15 c-66 -20 -70
-24 -46 -52 19 -24 19 -24 69 -7 51 17 84 14 39 -4 -13 -5 -37 -14 -52 -20
-27 -10 -27 -11 -12 -40 15 -30 15 -30 50 -15 38 16 75 19 59 5 -5 -5 -26 -14
-46 -21 -27 -8 -38 -17 -38 -31 0 -31 20 -31 118 1 71 23 110 30 174 30 134 1
180 25 228 119 l27 54 19 -31 c19 -33 67 -62 103 -62 15 0 29 -16 52 -61 l31
-62 -36 -69 c-20 -39 -36 -76 -36 -84 0 -8 -2 -14 -5 -14 -3 0 -56 25 -118 55
-197 96 -341 118 -482 74 -37 -11 -68 -19 -69 -17 -2 2 -15 35 -30 73 -28 76
-44 103 -93 158 -44 50 -82 67 -150 67 -191 -1 -652 -222 -800 -384 -67 -73
-86 -116 -91 -203 -4 -64 -1 -79 26 -135 62 -132 204 -232 443 -311 157 -53
358 -89 549 -100 l45 -2 42 -175 c24 -96 79 -323 124 -504 44 -181 77 -332 72
-336 -4 -4 -37 -17 -73 -30 -36 -13 -107 -43 -159 -67 -64 -29 -98 -40 -106
-33 -13 11 -60 109 -54 113 2 2 33 22 69 44 36 22 84 52 108 67 l43 27 -33 37
c-120 133 -228 384 -260 608 -7 46 -15 84 -20 84 -14 0 -523 -172 -531 -180
-13 -12 12 -214 39 -308 34 -119 99 -251 172 -348 68 -90 144 -164 168 -164 8
0 62 27 118 60 57 33 106 60 109 60 4 0 21 -28 38 -62 27 -54 29 -62 15 -70
-44 -25 -142 -116 -181 -169 -118 -160 -127 -358 -21 -476 43 -47 147 -113
179 -113 19 0 29 -27 18 -48 -32 -64 -17 -166 34 -216 37 -38 92 -56 189 -63
133 -10 278 46 470 181 60 42 110 75 111 74 1 -2 10 -23 19 -48 10 -25 37 -83
61 -129 l43 -83 -38 -59 c-43 -67 -94 -184 -120 -274 -17 -60 -17 -60 -70 -77
-30 -10 -57 -15 -61 -10 -3 4 -14 27 -23 51 -54 140 -186 244 -345 271 -113
19 -200 -10 -227 -77 -17 -40 -8 -81 31 -143 28 -44 70 -128 79 -157 6 -19 2
-22 -46 -28 -29 -4 -68 -14 -87 -21 -19 -8 -36 -12 -38 -10 -3 2 -20 49 -38
103 -46 138 -71 197 -101 243 -30 46 -80 80 -115 80 -19 -1 -15 -4 14 -15 79
-28 115 -86 187 -297 l43 -127 -33 -27 c-18 -15 -45 -48 -61 -73 l-28 -46 -12
30 c-6 17 -36 98 -65 180 -65 182 -84 205 -168 205 -46 0 -61 -5 -98 -33 -54
-40 -139 -166 -170 -249 -22 -60 -23 -62 -29 -33 -4 17 -7 76 -8 133 l-1 103
78 78 c86 87 195 149 276 158 25 3 46 9 46 13 0 4 -19 4 -43 -1 -134 -25 -268
-115 -354 -238 -2 -3 -11 2 -19 11 -15 15 -13 21 17 79 19 35 60 92 93 126 65
70 91 81 250 108 50 9 106 20 123 26 83 27 99 137 24 161 -8 2 35 34 97 73 62
37 111 70 108 72 -6 6 -285 -168 -386 -241 -180 -129 -284 -237 -332 -344 -11
-24 -29 -47 -42 -52 -13 -5 -33 -20 -44 -35 -36 -45 -45 -91 -40 -194 6 -111
35 -200 80 -245 24 -24 35 -28 64 -23 28 5 39 1 59 -19 32 -32 119 -71 212
-95 97 -24 259 -35 305 -20 31 10 41 9 73 -8 68 -36 125 -36 280 2 176 44 193
46 352 56 107 7 139 12 186 34 116 53 195 159 206 280 l6 62 58 3 58 3 -2 -28
c-4 -59 2 -84 30 -115 27 -30 34 -33 88 -32 39 1 99 14 183 41 144 47 199 59
330 72 163 17 238 50 266 117 7 18 18 70 24 116 5 46 14 117 20 158 6 41 7 95
4 119 l-7 43 29 -6 c65 -13 581 -67 614 -63 23 2 15 4 -24 5 -53 2 -62 5 -91
36 -103 109 -207 444 -222 712 l-6 111 47 7 c27 4 49 6 51 4 2 -2 9 -55 15
-118 20 -205 77 -435 138 -555 34 -69 99 -163 122 -177 10 -6 16 -18 13 -25
-6 -16 14 -17 56 -2 44 15 62 57 69 156 l5 83 51 -6 c28 -4 52 -8 54 -9 1 -1
-3 -16 -9 -34 -14 -39 9 -81 44 -81 50 -1 44 -16 -19 -49 -81 -42 -138 -105
-154 -169 -28 -121 68 -165 121 -56 11 24 22 44 23 44 1 0 2 -27 1 -61 0 -54
3 -63 28 -85 37 -32 68 -30 105 4 32 30 51 84 53 147 0 31 2 36 9 20 9 -24 40
-283 40 -338 0 -36 1 -37 35 -37 l35 0 0 55 c0 131 -45 335 -94 434 -15 29
-25 56 -22 59 20 19 185 -64 217 -109 12 -17 29 -34 39 -37 20 -8 73 -72 214
-260 109 -145 155 -192 187 -192 11 0 23 -10 29 -24 11 -30 47 -39 107 -26 57
13 112 49 134 87 9 16 19 56 23 91 7 73 -2 122 -75 419 -27 111 -49 206 -49
210 0 17 134 -126 177 -189 25 -37 52 -69 60 -72 25 -10 51 12 68 58 23 59 15
95 -40 187 -25 41 -45 77 -45 80 0 3 62 -25 138 -63 184 -91 286 -120 422
-121 80 0 113 4 138 17 35 18 44 54 18 75 -7 6 -16 25 -19 41 -8 35 -43 60
-96 67 -31 4 -42 11 -51 33 -12 28 -24 35 -156 84 -135 50 -284 167 -419 327
-66 79 -75 94 -63 106 12 12 3 31 -68 139 l-82 124 15 43 c30 86 -3 207 -92
331 l-55 76 -26 188 c-14 103 -27 206 -30 228 -6 48 -4 47 -176 60 -49 4 -88
10 -88 14 0 3 18 31 40 60 l40 54 0 248 c0 177 3 248 11 248 8 0 10 16 5 50
-4 29 -3 50 3 50 11 0 14 -23 51 -400 20 -200 35 -307 43 -312 6 -4 22 -8 35
-8 13 0 31 -4 40 -9 9 -5 80 -12 156 -16 l139 -7 -6 38 c-9 55 -45 356 -60
499 l-12 120 -35 11 c-34 11 -35 13 -48 90 -15 87 -14 84 -6 135 3 21 -1 58
-10 90 -10 33 -14 70 -11 94 7 43 -38 466 -55 525 -13 45 -13 63 0 55 6 -4 22
1 35 9 19 13 25 25 25 52 0 29 7 43 35 68 65 60 35 116 -63 116 -68 0 -86 13
-127 89 -35 63 -74 83 -117 58 -16 -9 -40 -17 -53 -17 -26 0 -45 -25 -45 -60
0 -28 -80 -104 -94 -90 -18 18 -34 10 -51 -26 -18 -39 -54 -58 -99 -51 -40 6
-355 -69 -386 -91 -14 -11 -36 -34 -48 -53 -48 -69 -5 -169 79 -188 21 -5 76
-1 144 11 61 10 116 17 122 15 8 -1 -1 -19 -22 -46 -19 -24 -33 -47 -30 -51 2
-4 -19 -34 -47 -66 -60 -68 -312 -384 -359 -450 -18 -24 -36 -44 -41 -44 -5 0
-55 43 -111 95 -56 52 -129 115 -162 140 -132 100 -285 150 -396 128 -59 -12
-69 -7 -69 35 0 37 -38 106 -83 152 -81 82 -219 125 -368 113 l-64 -5 -43 102
-43 103 27 28 c20 21 28 41 32 80 6 68 -16 112 -73 139 -50 24 -76 25 -120 4
-30 -14 -38 -14 -90 1 -53 16 -80 15 -150 -1 -18 -5 -20 0 -21 54 -1 76 -28
130 -80 159 -50 29 -117 30 -162 3z m2926 -162 c7 -7 12 -26 12 -43 0 -39 16
-55 53 -55 24 0 28 -4 25 -22 -2 -13 -13 -27 -25 -33 -15 -6 -25 -22 -29 -42
-4 -18 -9 -34 -13 -36 -3 -2 -35 2 -71 9 -57 10 -60 12 -24 13 22 1 49 8 60
17 18 15 18 15 -3 5 -12 -6 -38 -11 -57 -11 -34 0 -35 1 -24 25 6 13 16 23 21
22 6 -1 14 18 18 43 7 52 2 69 -7 22 -3 -17 -12 -33 -20 -36 -8 -3 -14 -11
-14 -18 0 -7 -9 -19 -20 -25 -10 -7 -24 -23 -30 -35 l-11 -23 20 23 c29 33 34
27 12 -15 -32 -63 -60 -82 -146 -98 -43 -9 -79 -14 -81 -13 -1 2 -4 25 -5 52
l-3 49 45 13 c36 11 48 21 62 49 9 19 21 35 27 35 10 0 3 -27 -13 -47 -23 -30
7 -9 49 35 29 29 48 42 51 34 3 -6 9 -10 14 -6 20 12 7 -12 -23 -43 -17 -18
-29 -35 -27 -38 3 -2 23 13 44 35 29 29 36 43 28 51 -18 18 4 69 30 69 16 0
18 3 9 9 -14 8 -3 23 28 34 23 8 25 8 38 -5z m-2760 -225 c2 -16 -5 -26 -27
-37 -37 -20 -58 -20 -93 -2 -16 8 -28 11 -28 6 0 -5 9 -12 21 -15 11 -4 19
-10 17 -14 -2 -3 -12 -30 -22 -59 -11 -29 -23 -52 -27 -52 -3 0 -9 19 -13 43
-3 23 -8 56 -12 72 -4 24 0 36 20 58 24 26 31 28 93 25 61 -3 68 -5 71 -25z
m2390 -68 l-3 -50 -138 -26 c-76 -15 -142 -31 -145 -35 -4 -4 4 -4 18 -1 14 3
77 15 140 27 63 12 129 28 145 35 17 7 53 16 80 20 73 10 110 29 131 65 19 32
20 32 80 27 74 -7 164 -40 191 -70 30 -33 39 -54 57 -137 17 -83 60 -463 54
-482 -3 -7 -22 -13 -44 -13 -21 -1 -60 -5 -85 -9 l-46 -8 -12 114 c-7 62 -18
184 -25 271 -7 87 -17 161 -21 165 -4 4 -5 -6 -2 -23 3 -16 9 -75 12 -130 3
-55 8 -113 12 -129 l5 -30 -43 37 c-95 82 -275 118 -412 82 -32 -8 -63 -15
-68 -15 -11 0 -11 1 94 135 38 48 67 89 65 90 -2 2 -24 -22 -49 -54 l-46 -57
-119 -18 c-65 -11 -134 -18 -153 -18 -121 5 -150 170 -38 229 17 9 102 33 187
54 179 42 183 41 178 -46z m-2078 -14 c0 -6 15 -11 34 -11 34 0 35 -1 29 -35
-5 -33 -4 -35 24 -35 28 0 53 15 53 32 0 4 -17 8 -37 8 -32 0 -35 2 -23 14 8
7 27 16 41 20 26 6 29 2 80 -117 63 -147 72 -208 40 -261 -44 -71 -186 -111
-274 -77 -41 16 -24 -5 26 -32 35 -18 57 -22 139 -22 53 1 100 4 104 7 3 4 -3
19 -15 34 -31 40 -25 52 9 19 17 -16 30 -35 30 -42 0 -57 48 68 65 170 3 20
10 37 16 37 5 0 7 -17 3 -42 -8 -54 -52 -195 -62 -200 -4 -2 -18 -28 -32 -58
-30 -65 -87 -139 -130 -170 -28 -20 -34 -21 -57 -9 -73 39 -342 407 -316 433
4 3 -8 6 -26 6 -57 0 -121 48 -121 91 0 8 15 32 33 53 l32 37 33 -17 c50 -25
115 -14 156 25 33 32 62 38 99 20 21 -10 21 -10 3 5 -11 9 -27 16 -36 16 -23
0 -29 8 -23 31 3 10 14 19 24 19 25 0 24 30 -1 37 -15 4 -50 52 -50 69 0 2 17
4 38 6 29 3 43 -2 65 -24 15 -15 27 -32 27 -37z m-590 -512 c86 -23 222 -88
398 -189 313 -179 744 -510 1058 -812 l80 -78 123 -10 c173 -14 346 -58 464
-117 37 -18 52 -21 67 -13 51 27 70 142 36 209 -28 52 -97 113 -203 179 -130
79 -196 150 -379 407 -171 240 -168 235 -156 235 6 0 80 -98 166 -217 85 -120
176 -242 202 -271 28 -32 96 -85 173 -136 144 -94 204 -156 226 -228 21 -71 8
-126 -42 -180 -23 -24 -24 -30 -15 -75 6 -26 10 -55 9 -63 -1 -8 7 -59 17
-114 22 -116 18 -328 -9 -436 -27 -112 -86 -220 -155 -283 -172 -160 -457
-202 -678 -102 -58 26 -182 105 -182 116 0 3 11 11 25 17 14 7 28 18 31 25 8
22 -247 614 -453 1052 -123 259 -315 646 -320 642 -2 -2 68 -150 156 -328 203
-414 518 -1105 508 -1115 -2 -2 -19 1 -38 7 -19 6 -108 14 -198 17 l-164 7
-128 380 c-70 209 -177 527 -238 708 -69 203 -111 343 -111 368 0 59 23 96 69
110 32 10 44 8 82 -9 59 -26 228 -178 484 -436 309 -310 549 -590 801 -937 65
-89 131 -170 148 -180 62 -38 118 -16 137 54 11 41 6 290 -7 342 -4 18 0 24
19 29 95 23 156 188 81 216 -35 14 -34 15 -34 -30 0 -22 4 -40 8 -40 5 0 16
-6 27 -13 17 -13 17 -16 -6 -56 -72 -128 -203 -73 -243 103 -7 28 -7 29 29 23
l36 -6 -3 41 c-3 44 -4 45 -85 61 -31 6 -33 5 -33 -22 0 -39 9 -61 26 -61 8 0
14 -6 14 -13 0 -70 73 -188 125 -201 32 -8 38 -43 39 -234 l1 -154 -29 -25
c-23 -19 -36 -23 -60 -19 -42 9 -72 40 -182 193 -321 442 -709 872 -1139 1261
-149 136 -230 161 -289 91 -41 -48 -36 -108 25 -285 176 -514 419 -1240 419
-1251 0 -10 -24 -13 -97 -13 -204 0 -526 -41 -644 -80 -33 -12 -79 -32 -101
-46 -22 -14 -42 -23 -45 -20 -21 21 -288 1094 -338 1356 -55 291 -37 447 65
564 86 98 260 132 430 85z m3266 -132 c0 -1 9 -32 18 -70 22 -81 16 -128 -21
-157 -31 -24 -104 -28 -123 -5 -14 17 -5 36 15 29 11 -5 10 3 -5 33 -13 27
-15 40 -7 45 6 4 9 9 6 13 -3 3 -17 -4 -31 -14 -19 -15 -28 -17 -36 -9 -20 20
-14 36 23 64 19 14 35 35 35 45 0 12 10 21 28 25 15 3 32 7 37 9 9 3 59 -4 61
-8z m-556 -273 c-5 -98 -10 -268 -10 -376 0 -109 -3 -198 -7 -197 -7 1 -161
167 -227 244 l-28 33 102 183 c138 246 171 301 176 296 2 -2 0 -84 -6 -183z
m584 29 c3 -10 8 -44 12 -77 6 -57 6 -58 -16 -51 -12 4 -51 15 -86 25 -83 24
-84 25 -84 71 0 36 2 39 19 29 29 -15 94 -12 117 5 25 19 32 19 38 -2z m-918
-1440 c65 -87 161 -200 211 -252 51 -52 93 -96 93 -97 0 -1 -12 -4 -27 -7 -16
-3 -73 -33 -128 -66 -98 -59 -186 -91 -251 -91 -40 0 -58 -21 -56 -65 1 -30
-2 -35 -22 -35 -21 0 -26 7 -36 53 -7 28 -23 85 -37 125 -24 72 -24 72 -5 100
71 100 119 249 129 400 3 50 7 92 8 92 1 0 56 -71 121 -157z m-2577 -90 c6
-21 11 -43 11 -48 0 -6 -47 -34 -104 -62 -57 -29 -120 -66 -139 -82 l-35 -31
-42 55 c-24 31 -41 57 -39 59 35 27 304 145 331 146 4 0 12 -17 17 -37z m1320
12 c40 -18 46 -27 76 -100 19 -44 32 -81 31 -83 -2 -1 -20 5 -40 13 -77 32
-232 48 -476 49 -248 0 -343 -8 -540 -50 -154 -33 -205 -51 -245 -85 l-33 -29
-21 69 c-12 38 -21 74 -21 80 0 5 19 22 43 36 147 86 433 125 892 122 265 -2
294 -4 334 -22z m-1260 -210 c41 -136 45 -140 153 -155 33 -5 62 -11 64 -13 3
-2 -8 -18 -22 -35 -25 -28 -31 -30 -75 -25 -38 5 -53 2 -76 -15 l-28 -20 -87
44 c-82 43 -209 139 -232 177 -9 14 -6 22 19 42 36 29 225 127 238 122 5 -1
26 -57 46 -122z m-358 1 l27 -30 -21 -40 c-26 -49 -34 -141 -17 -191 18 -56
77 -115 145 -146 l60 -27 -49 -21 c-26 -12 -117 -53 -201 -92 l-154 -71 -29
21 c-98 69 -134 201 -97 346 28 106 110 217 224 301 l46 34 20 -27 c11 -15 32
-40 46 -57z m1356 78 l60 -7 43 -144 42 -145 -30 -37 c-67 -83 -168 -120 -331
-121 -61 0 -63 1 -56 23 4 12 10 56 12 97 l5 76 46 24 c59 32 84 67 86 120 1
35 -4 46 -28 67 -27 23 -36 25 -97 21 -56 -3 -84 -12 -161 -50 -51 -25 -111
-49 -133 -53 -22 -4 -60 -15 -84 -26 -24 -11 -45 -18 -46 -17 -1 2 -10 27 -20
57 -14 42 -15 55 -5 61 18 11 208 40 320 49 125 11 302 13 377 5z m2503 -71
c0 -3 -7 -14 -15 -23 -14 -16 -10 -28 54 -136 38 -66 68 -121 66 -123 -9 -8
-27 16 -85 119 -35 60 -66 110 -70 110 -3 0 -19 -13 -34 -29 l-29 -30 68 -120
c43 -76 72 -118 79 -113 6 4 31 21 54 37 l44 29 36 -44 c62 -76 184 -200 248
-250 76 -61 191 -123 268 -145 34 -10 70 -29 85 -44 l26 -26 -27 -3 c-16 -2
-81 15 -145 37 -65 22 -110 34 -100 27 30 -23 171 -65 266 -80 101 -17 127
-27 136 -56 12 -38 -2 -43 -104 -36 -105 6 -214 33 -291 70 -28 13 -50 21 -50
16 0 -4 22 -17 48 -28 89 -39 204 -64 316 -71 102 -6 111 -8 114 -27 4 -29
-17 -43 -84 -54 -76 -13 -203 3 -307 37 -120 40 -319 143 -334 173 -12 23 -13
23 -13 4 0 -12 14 -48 31 -80 84 -158 81 -151 74 -193 -6 -39 -38 -91 -55 -91
-5 0 -40 42 -78 93 -38 50 -96 117 -128 147 l-58 55 -53 215 c-29 118 -53 217
-53 220 0 3 25 16 54 28 l54 24 -21 36 c-101 179 -118 202 -139 191 -16 -9
-40 -6 -27 4 2 2 27 19 54 39 28 20 63 50 79 67 28 30 46 39 46 24z m-3810
-62 c0 -19 167 -142 245 -181 l81 -40 -4 -39 c-4 -38 -6 -40 -80 -74 l-76 -34
-60 20 c-137 46 -203 189 -146 315 17 38 40 57 40 33z m3164 -23 c4 -12 71
-203 83 -235 9 -23 -40 -14 -92 16 -52 30 -92 78 -120 143 l-15 37 32 17 c63
33 107 41 112 22z m-1474 -42 c118 -87 225 -124 386 -133 l101 -6 6 -111 c4
-61 10 -122 13 -135 l7 -24 -184 7 c-101 4 -202 9 -224 12 l-40 6 0 126 c0
113 -3 132 -23 169 -51 97 -167 118 -238 45 -19 -19 -36 -33 -37 -31 -2 2 -8
21 -14 42 -9 29 -9 39 0 41 17 5 160 33 174 35 7 0 40 -19 73 -43z m1330 -24
c0 -28 53 -104 96 -140 21 -18 62 -39 91 -48 28 -8 54 -23 58 -32 34 -84 53
-152 41 -152 -21 0 -87 49 -138 101 -38 40 -53 49 -82 49 -49 0 -76 -36 -76
-104 0 -73 39 -146 119 -226 73 -72 146 -116 235 -140 l59 -16 28 -100 28 -99
-25 -72 c-38 -111 -29 -226 21 -259 34 -23 61 -5 70 47 4 22 10 38 13 35 3 -4
18 -39 34 -78 25 -66 26 -73 11 -82 -9 -5 -27 -20 -39 -33 l-22 -24 -84 112
-83 112 0 86 c0 82 -2 89 -36 141 -64 99 -126 154 -203 180 -66 21 -69 24 -92
74 -12 28 -37 103 -54 166 -36 132 -39 139 -115 211 -59 56 -100 115 -115 167
-9 35 0 42 55 42 35 0 62 -21 124 -99 23 -30 39 -41 55 -39 32 5 31 39 -3 100
-37 65 -39 100 -8 121 29 21 37 21 37 -1z m-2335 -38 c-14 -22 -40 -50 -56
-62 -29 -24 -30 -25 -23 -98 7 -74 3 -84 -27 -61 -56 44 -81 70 -84 90 -1 12
-6 34 -9 48 -7 24 -2 28 66 64 66 35 148 67 156 60 2 -1 -9 -20 -23 -41z
m1055 -73 c6 -25 8 -89 4 -173 -9 -180 -9 -190 15 -237 48 -92 62 -233 37
-371 l-11 -65 -50 -7 c-27 -3 -95 -20 -149 -37 -93 -29 -329 -62 -343 -47 -3
3 9 29 27 58 102 167 254 279 446 328 59 15 67 19 31 14 -65 -7 -147 -37 -226
-81 -85 -47 -217 -178 -262 -260 -32 -59 -37 -64 -89 -79 -30 -9 -61 -21 -68
-26 -23 -20 -25 1 -2 44 38 74 97 144 174 207 98 80 121 113 121 173 0 177
-280 140 -491 -64 l-52 -50 -35 63 c-41 74 -77 155 -77 174 0 13 46 55 60 55
4 0 12 -11 18 -24 18 -40 75 -98 110 -113 70 -29 132 23 132 109 0 31 -16 94
-35 141 -6 15 0 17 69 17 163 0 333 62 414 151 121 133 129 139 177 139 43 0
45 -1 55 -39z m778 -72 l163 -12 15 -29 c8 -16 54 -71 103 -121 84 -89 88 -95
111 -177 13 -47 34 -108 46 -137 l22 -52 -59 1 c-34 0 -65 -5 -74 -12 -12 -10
-54 -9 -221 5 -237 21 -206 2 -250 155 -29 99 -52 224 -61 329 l-6 74 24 -6
c13 -3 97 -11 187 -18z m-2160 -70 c17 -13 34 -18 50 -14 19 5 36 -7 93 -62
62 -59 72 -66 89 -55 17 10 20 8 25 -26 4 -20 9 -44 11 -53 8 -28 -182 -157
-345 -236 -209 -101 -376 -13 -316 166 16 48 22 54 153 145 75 52 153 109 172
125 19 17 37 30 38 31 2 0 16 -9 30 -21z m1659 -135 c156 -6 183 -9 187 -23 2
-9 12 -52 21 -96 31 -145 104 -325 162 -403 14 -18 23 -36 20 -38 -5 -5 -323
28 -403 41 -30 5 -34 11 -64 97 -36 105 -102 237 -158 321 -30 44 -38 64 -34
88 4 30 6 31 46 25 22 -3 123 -8 223 -12z m1016 -403 c126 -33 165 -60 251
-174 23 -31 36 -59 36 -79 0 -31 0 -31 -20 -13 -12 10 -18 25 -15 33 3 8 -2
26 -10 39 -13 20 -19 22 -31 12 -22 -18 -47 6 -33 33 9 16 7 24 -5 36 -14 14
-18 14 -38 -6 -31 -29 -53 -16 -43 27 5 24 3 31 -8 31 -9 0 -22 2 -29 5 -9 4
-19 -4 -26 -19 -9 -20 -16 -24 -32 -18 -12 4 -27 19 -33 32 -16 32 -42 36 -64
11 -18 -22 -48 -27 -72 -12 -20 13 3 49 42 66 41 18 41 18 130 -4z m621 -567
c22 -26 43 -38 70 -43 24 -4 44 -14 53 -28 15 -22 14 -23 -32 -43 -67 -29
-126 -9 -175 60 l-21 30 30 30 c16 17 33 30 37 30 4 0 21 -16 38 -36z"/>
<path d="M5305 2189 c-4 -5 17 -36 47 -69 84 -92 113 -92 106 -2 -3 38 -11 59
-23 68 -22 16 -121 19 -130 3z"/>
<path d="M2301 2571 l-34 -28 78 -74 c43 -41 81 -74 84 -74 4 0 22 13 41 28
l33 28 -20 27 c-19 26 -132 122 -143 122 -3 0 -20 -13 -39 -29z"/>
<path d="M2140 2440 l-35 -29 69 -70 70 -71 30 24 c16 12 32 28 33 33 4 11
-113 143 -126 143 -3 0 -22 -14 -41 -30z"/>
<path d="M2549 2079 c-168 -82 -173 -93 -66 -172 104 -77 111 -80 135 -59 24
21 92 191 92 230 0 31 -16 52 -40 52 -9 0 -64 -23 -121 -51z m141 26 c7 -9 10
-29 7 -48 -8 -48 -76 -205 -92 -211 -19 -7 -185 114 -185 136 0 13 34 35 118
77 64 33 122 60 128 60 6 1 17 -6 24 -14z"/>
</g>
</svg>
