<svg width="782" height="681" viewBox="0 0 782 681" fill="none" xmlns="http://www.w3.org/2000/svg">
<path d="M218.933 2.66667C206.533 10.2667 206.267 37.2 218.267 46.6667L221.6 49.3333L218 53.6C215.867 56 213.467 57.8666 212.4 57.6C211.333 57.3333 208.533 57.8667 206.133 58.6667C202.8 59.7333 200.533 59.6 196.133 58C187.067 54.8 180.667 55.3333 177.467 59.4667C175.867 61.4667 174.667 63.7333 174.667 64.5333C174.667 65.3333 175.467 64.8 176.267 63.3333C179.6 57.2 186.933 55.6 195.333 59.2L199.333 60.9333L189.333 65.6C179.333 70.1333 173.6 75.3333 169.067 83.7333C166.133 89.3333 162.267 91.6 150 94.6667C138.4 97.6 137.6 98.1333 139.6 100.133C140.667 101.2 143.067 100.933 148.267 99.3333C152.133 98 155.6 96.5333 156 96C156.4 95.4667 159.2 93.7333 162.4 92.1333C166.533 90 169.067 87.3333 172.133 82C174.4 78 178 73.4667 180 72C183.867 69.2 208.133 58.6667 210.667 58.6667C215.333 58.6667 219.867 78.4 217.333 87.8666C216 93.0666 212.933 97.3333 210.8 97.3333C210.133 97.3333 209.467 90.6667 209.067 82.6667C208.8 74.5333 207.867 67.3333 207.067 66.5333C206 65.4666 205.867 66.4 206.8 70.1333C208.4 77.2 208.267 94.2667 206.667 97.4667C205.867 98.8 204.133 100 202.8 100C200.8 100 200.267 98.4 199.6 89.6C199.067 84 198.133 77.4666 197.333 75.3333L196 71.3333L196.667 75.3333C197.067 77.4666 197.733 84.1333 198.133 90C198.933 99.2 198.667 101.067 196.8 103.067C192.4 107.467 190.267 104.933 188.667 94C188.267 90.2667 187.2 86.4 186.4 85.3333C185.333 83.6 185.2 83.7333 185.733 85.4667C186.133 86.6667 186.8 90.5333 187.333 94.1333C188.933 105.2 193.867 110 197.6 104C198.533 102.533 200.4 101.333 201.733 101.333C202.933 101.333 205.067 100.8 206.4 100.133C207.6 99.4666 210.267 98.2667 212.4 97.4667C214.4 96.6667 216.667 94.4 217.467 92.4C219.467 87.0666 226.667 80 230.133 80C231.733 80 233.733 80.9333 234.667 82C236.133 83.7333 236 84.6667 233.6 87.7333C232 89.7333 228.933 94.2667 226.8 98C214.8 118.533 214.4 118.8 193.333 120.133C184.933 120.533 176 121.733 173.467 122.533C170.933 123.333 168.8 123.867 168.667 123.6C168.667 123.467 167.733 120.267 166.8 116.667C166 112.933 163.733 107.467 161.867 104.4L158.667 98.8L151.6 100.8C142.8 103.467 142.267 104 145.467 107.733C148 110.933 148 110.933 154.667 108.667C161.467 106.4 165.867 106.8 159.867 109.2C158.133 109.867 154.933 111.067 152.933 111.867C149.333 113.2 149.333 113.333 151.333 117.2C153.333 121.2 153.333 121.2 158 119.2C163.067 117.067 168 116.667 165.867 118.533C165.2 119.2 162.4 120.4 159.733 121.333C156.133 122.4 154.667 123.6 154.667 125.467C154.667 129.6 157.333 129.6 170.4 125.333C179.867 122.267 185.067 121.333 193.6 121.333C211.467 121.2 217.6 118 224 105.467L227.6 98.2667L230.133 102.4C232.667 106.8 239.067 110.667 243.867 110.667C245.867 110.667 247.733 112.8 250.8 118.8L254.933 127.067L250.133 136.267C247.467 141.467 245.333 146.4 245.333 147.467C245.333 148.533 245.067 149.333 244.667 149.333C244.267 149.333 237.2 146 228.933 142C202.667 129.2 183.467 126.267 164.667 132.133C159.733 133.6 155.6 134.667 155.467 134.4C155.2 134.133 153.467 129.733 151.467 124.667C147.733 114.533 145.6 110.933 139.067 103.6C133.2 96.9333 128.133 94.6667 119.067 94.6667C93.6 94.8 32.1333 124.267 12.4 145.867C3.46665 155.6 0.933318 161.333 0.266651 172.933C-0.266682 181.467 0.133318 183.467 3.73332 190.933C12 208.533 30.9333 221.867 62.8 232.4C83.7333 239.467 110.533 244.267 136 245.733L142 246L147.6 269.333C150.8 282.133 158.133 312.4 164.133 336.533C170 360.667 174.4 380.8 173.733 381.333C173.2 381.867 168.8 383.6 164 385.333C159.2 387.067 149.733 391.067 142.8 394.267C134.267 398.133 129.733 399.6 128.667 398.667C126.933 397.2 120.667 384.133 121.467 383.6C121.733 383.333 125.867 380.667 130.667 377.733C135.467 374.8 141.867 370.8 145.067 368.8L150.8 365.2L146.4 360.267C130.4 342.533 116 309.067 111.733 279.2C110.8 273.067 109.733 268 109.067 268C107.2 268 39.3333 290.933 38.2667 292C36.5333 293.6 39.8667 320.533 43.4667 333.067C48 348.933 56.6667 366.533 66.4 379.467C75.4667 391.467 85.6 401.333 88.8 401.333C89.8667 401.333 97.0667 397.733 104.533 393.333C112.133 388.933 118.667 385.333 119.067 385.333C119.6 385.333 121.867 389.067 124.133 393.6C127.733 400.8 128 401.867 126.133 402.933C120.267 406.267 107.2 418.4 102 425.467C86.2667 446.8 85.0667 473.2 99.2 488.933C104.933 495.2 118.8 504 123.067 504C125.6 504 126.933 507.6 125.467 510.4C121.2 518.933 123.2 532.533 130 539.2C134.933 544.267 142.267 546.667 155.2 547.6C172.933 548.933 192.267 541.467 217.867 523.467C225.867 517.867 232.533 513.467 232.667 513.6C232.8 513.867 234 516.667 235.2 520C236.533 523.333 240.133 531.067 243.333 537.2L249.067 548.267L244 556.133C238.267 565.067 231.467 580.667 228 592.667C225.733 600.667 225.733 600.667 218.667 602.933C214.667 604.267 211.067 604.933 210.533 604.267C210.133 603.733 208.667 600.667 207.467 597.467C200.267 578.8 182.667 564.933 161.467 561.333C146.4 558.8 134.8 562.667 131.2 571.6C128.933 576.933 130.133 582.4 135.333 590.667C139.067 596.533 144.667 607.733 145.867 611.6C146.667 614.133 146.133 614.533 139.733 615.333C135.867 615.867 130.667 617.2 128.133 618.133C125.6 619.2 123.333 619.733 123.067 619.467C122.667 619.2 120.4 612.933 118 605.733C111.867 587.333 108.533 579.467 104.533 573.333C100.533 567.2 93.8667 562.667 89.2 562.667C86.6667 562.8 87.2 563.2 91.0667 564.667C101.6 568.4 106.4 576.133 116 604.267L121.733 621.2L117.333 624.8C114.933 626.8 111.333 631.2 109.2 634.533L105.467 640.667L103.867 636.667C103.067 634.4 99.0667 623.6 95.2 612.667C86.5333 588.4 84 585.333 72.8 585.333C66.6667 585.333 64.6667 586 59.7333 589.733C52.5333 595.067 41.2 611.867 37.0667 622.933C34.1333 630.933 34 631.2 33.2 627.333C32.6667 625.067 32.2667 617.2 32.1333 609.6L32 595.867L42.4 585.467C53.8667 573.867 68.4 565.6 79.2 564.4C82.5333 564 85.3333 563.2 85.3333 562.667C85.3333 562.133 82.8 562.133 79.6 562.8C61.7333 566.133 43.8667 578.133 32.4 594.533C32.1333 594.933 30.9333 594.267 29.8667 593.067C27.8667 591.067 28.1333 590.267 32.1333 582.533C34.6667 577.867 40.1333 570.267 44.5333 565.733C53.2 556.4 56.6667 554.933 77.8667 551.333C84.5333 550.133 92 548.667 94.2667 547.867C105.333 544.267 107.467 529.6 97.4667 526.4C96.4 526.133 102.133 521.867 110.4 516.667C118.667 511.733 125.2 507.333 124.8 507.067C124 506.267 86.8 529.467 73.3333 539.2C49.3333 556.4 35.4667 570.8 29.0667 585.067C27.6 588.267 25.2 591.333 23.4667 592C21.7333 592.667 19.0667 594.667 17.6 596.667C12.8 602.667 11.6 608.8 12.2667 622.533C13.0667 637.333 16.9333 649.2 22.9333 655.2C26.1333 658.4 27.6 658.933 31.4667 658.267C35.2 657.6 36.6667 658.133 39.3333 660.8C43.6 665.067 55.2 670.267 67.6 673.467C80.5333 676.667 102.133 678.133 108.267 676.133C112.4 674.8 113.733 674.933 118 677.2C127.067 682 134.667 682 155.333 676.933C178.8 671.067 181.067 670.8 202.267 669.467C216.533 668.533 220.8 667.867 227.067 664.933C242.533 657.867 253.067 643.733 254.533 627.6L255.333 619.333L263.067 618.933L270.8 618.533L270.533 622.267C270 630.133 270.8 633.467 274.533 637.6C278.133 641.6 279.067 642 286.267 641.867C291.467 641.733 299.467 640 310.667 636.4C329.867 630.133 337.2 628.533 354.667 626.8C376.4 624.533 386.4 620.133 390.133 611.2C391.067 608.8 392.533 601.867 393.333 595.733C394 589.6 395.2 580.133 396 574.667C396.8 569.2 396.933 562 396.533 558.8L395.6 553.067L399.467 553.867C408.133 555.6 476.933 562.8 481.333 562.267C484.4 562 483.333 561.733 478.133 561.6C471.067 561.333 469.867 560.933 466 556.8C452.267 542.267 438.4 497.6 436.4 461.867L435.6 447.067L441.867 446.133C445.467 445.6 448.4 445.333 448.667 445.6C448.933 445.867 449.867 452.933 450.667 461.333C453.333 488.667 460.933 519.333 469.067 535.333C473.6 544.533 482.267 557.067 485.333 558.933C486.667 559.733 487.467 561.333 487.067 562.267C486.267 564.4 488.933 564.533 494.533 562.533C500.4 560.533 502.8 554.933 503.733 541.733L504.4 530.667L511.2 531.467C514.933 532 518.133 532.533 518.4 532.667C518.533 532.8 518 534.8 517.2 537.2C515.333 542.4 518.4 548 523.067 548C529.733 548.133 528.933 550.133 520.533 554.533C509.733 560.133 502.133 568.533 500 577.067C496.267 593.2 509.067 599.067 516.133 584.533C517.6 581.333 519.067 578.667 519.2 578.667C519.333 578.667 519.467 582.267 519.333 586.8C519.333 594 519.733 595.2 523.067 598.133C528 602.4 532.133 602.133 537.067 597.6C541.333 593.6 543.867 586.4 544.133 578C544.133 573.867 544.4 573.2 545.333 575.333C546.533 578.533 550.667 613.067 550.667 620.4C550.667 625.2 550.8 625.333 555.333 625.333H560V618C560 600.533 554 573.333 547.467 560.133C545.467 556.267 544.133 552.667 544.533 552.267C547.2 549.733 569.2 560.8 573.467 566.8C575.067 569.067 577.333 571.333 578.667 571.733C581.333 572.8 588.4 581.333 607.2 606.4C621.733 625.733 627.867 632 632.133 632C633.6 632 635.2 633.333 636 635.2C637.467 639.2 642.267 640.4 650.267 638.667C657.867 636.933 665.2 632.133 668.133 627.067C669.333 624.933 670.667 619.6 671.2 614.933C672.133 605.2 670.933 598.667 661.2 559.067C657.6 544.267 654.667 531.6 654.667 531.067C654.667 528.8 672.533 547.867 678.267 556.267C681.6 561.2 685.2 565.467 686.267 565.867C689.6 567.2 693.067 564.267 695.333 558.133C698.4 550.267 697.333 545.467 690 533.2C686.667 527.733 684 522.933 684 522.533C684 522.133 692.267 525.867 702.4 530.933C726.933 543.067 740.533 546.933 758.667 547.067C769.333 547.067 773.733 546.533 777.067 544.8C781.733 542.4 782.933 537.6 779.467 534.8C778.533 534 777.333 531.467 776.933 529.333C775.867 524.667 771.2 521.333 764.133 520.4C760 519.867 758.533 518.933 757.333 516C755.733 512.267 754.133 511.333 736.533 504.8C718.533 498.133 698.667 482.533 680.667 461.2C671.867 450.667 670.667 448.667 672.267 447.067C673.867 445.467 672.667 442.933 663.2 428.533L652.267 412L654.267 406.267C658.267 394.8 653.867 378.667 642 362.133L634.667 352L631.2 326.933C629.333 313.2 627.6 299.467 627.2 296.533C626.4 290.133 626.667 290.267 603.733 288.533C597.2 288 592 287.2 592 286.667C592 286.267 594.4 282.533 597.333 278.667L602.667 271.467V238.4C602.667 214.8 603.067 205.333 604.133 205.333C605.2 205.333 605.467 203.2 604.8 198.667C604.267 194.8 604.4 192 605.2 192C606.667 192 607.067 195.067 612 245.333C614.667 272 616.667 286.267 617.733 286.933C618.533 287.467 620.667 288 622.4 288C624.133 288 626.533 288.533 627.733 289.2C628.933 289.867 638.4 290.8 648.533 291.333L667.067 292.267L666.267 287.2C665.067 279.867 660.267 239.733 658.267 220.667L656.667 204.667L652 203.2C647.467 201.733 647.333 201.467 645.6 191.2C643.6 179.6 643.733 180 644.8 173.2C645.2 170.4 644.667 165.467 643.467 161.2C642.133 156.8 641.6 151.867 642 148.667C642.933 142.933 636.933 86.5333 634.667 78.6667C632.933 72.6667 632.933 70.2666 634.667 71.3333C635.467 71.8666 637.6 71.2 639.333 70.1333C641.867 68.4 642.667 66.8 642.667 63.2C642.667 59.3333 643.6 57.4666 647.333 54.1333C656 46.1333 652 38.6667 638.933 38.6667C629.867 38.6667 627.467 36.9333 622 26.8C617.333 18.4 612.133 15.7333 606.4 19.0666C604.267 20.2666 601.067 21.3333 599.333 21.3333C595.867 21.3333 593.333 24.6666 593.333 29.3333C593.333 33.0666 582.667 43.2 580.8 41.3333C578.4 38.9333 576.267 40 574 44.8C571.6 50 566.8 52.5333 560.8 51.6C555.467 50.8 513.467 60.8 509.333 63.7333C507.467 65.2 504.533 68.2666 502.933 70.8C496.533 80 502.267 93.3333 513.467 95.8666C516.267 96.5333 523.6 96 532.667 94.4C540.8 93.0666 548.133 92.1333 548.933 92.4C550 92.5333 548.8 94.9333 546 98.5333C543.467 101.733 541.6 104.8 542 105.333C542.267 105.867 539.467 109.867 535.733 114.133C527.733 123.2 494.133 165.333 487.867 174.133C485.467 177.333 483.067 180 482.4 180C481.733 180 475.067 174.267 467.6 167.333C460.133 160.4 450.4 152 446 148.667C428.4 135.333 408 128.667 393.2 131.6C385.333 133.2 384 132.533 384 126.933C384 122 378.933 112.8 372.933 106.667C362.133 95.7333 343.733 90 323.867 91.6L315.333 92.2667L309.6 78.6667L303.867 64.9333L307.467 61.2C310.133 58.4 311.2 55.7333 311.733 50.5333C312.533 41.4666 309.6 35.6 302 32C295.333 28.8 291.867 28.6667 286 31.4667C282 33.3333 280.933 33.3333 274 31.3333C266.933 29.2 263.333 29.3333 254 31.4667C251.6 32.1333 251.333 31.4666 251.2 24.2666C251.067 14.1333 247.467 6.9333 240.533 3.06663C233.867 -0.800036 224.933 -0.933333 218.933 2.66667ZM609.067 24.2666C610 25.2 610.667 27.7333 610.667 30C610.667 35.2 612.8 37.3333 617.733 37.3333C620.933 37.3333 621.467 37.8666 621.067 40.2666C620.8 42 619.333 43.8667 617.733 44.6667C615.733 45.4667 614.4 47.6 613.867 50.2666C613.333 52.6666 612.667 54.8 612.133 55.0666C611.733 55.3333 607.467 54.8 602.667 53.8666C595.067 52.5333 594.667 52.2666 599.467 52.1333C602.4 52 606 51.0666 607.467 49.8666C609.867 47.8666 609.867 47.8667 607.067 49.2C605.467 50 602 50.6667 599.467 50.6667C594.933 50.6667 594.8 50.5333 596.267 47.3333C597.067 45.6 598.4 44.2666 599.067 44.3999C599.867 44.5333 600.933 42 601.467 38.6667C602.4 31.7333 601.733 29.4667 600.533 35.7333C600.133 38 598.933 40.1333 597.867 40.5333C596.8 40.9333 596 42 596 42.9333C596 43.8667 594.8 45.4666 593.333 46.2666C592 47.2 590.133 49.3333 589.333 50.9333L587.867 54L590.533 50.9333C594.4 46.5333 595.067 47.3333 592.133 52.9333C587.867 61.3333 584.133 63.8667 572.667 66C566.933 67.2 562.133 67.8667 561.867 67.7333C561.733 67.4667 561.333 64.4 561.2 60.8L560.8 54.2666L566.8 52.5333C571.6 51.0666 573.2 49.7333 575.067 46C576.267 43.4667 577.867 41.3333 578.667 41.3333C580 41.3333 579.067 44.9333 576.933 47.6C573.867 51.6 577.867 48.8 583.467 42.9333C587.333 39.0667 589.867 37.3333 590.267 38.3999C590.667 39.1999 591.467 39.7333 592.133 39.2C594.8 37.6 593.067 40.8 589.067 44.9333C586.8 47.3333 585.2 49.6 585.467 50C585.867 50.2667 588.533 48.2666 591.333 45.3333C595.2 41.4666 596.133 39.6 595.067 38.5333C592.667 36.1333 595.6 29.3333 599.067 29.3333C601.2 29.3333 601.467 28.9333 600.267 28.1333C598.4 27.0666 599.867 25.0666 604 23.6C607.067 22.5333 607.333 22.5333 609.067 24.2666ZM241.067 54.2666C241.333 56.4 240.4 57.7333 237.467 59.2C232.533 61.8667 229.733 61.8667 225.067 59.4667C222.933 58.4 221.333 58 221.333 58.6667C221.333 59.3333 222.533 60.2667 224.133 60.6667C225.6 61.2 226.667 62 226.4 62.5333C226.133 62.9333 224.8 66.5333 223.467 70.4C222 74.2666 220.4 77.3333 219.867 77.3333C219.467 77.3333 218.667 74.8 218.133 71.6C217.733 68.5333 217.067 64.1333 216.533 62C216 58.8 216.533 57.2 219.2 54.2666C222.4 50.8 223.333 50.5333 231.6 50.9333C239.733 51.3333 240.667 51.6 241.067 54.2666ZM559.733 63.3333L559.333 70L540.933 73.4667C530.8 75.4667 522 77.6 521.6 78.1333C521.067 78.6666 522.133 78.6667 524 78.2667C525.867 77.8667 534.267 76.2667 542.667 74.6667C551.067 73.0667 559.867 70.9333 562 70C564.267 69.0667 569.067 67.8666 572.667 67.3333C582.4 66 587.333 63.4667 590.133 58.6667C592.667 54.4 592.8 54.4 600.8 55.0666C610.667 56 622.667 60.4 626.267 64.4C630.267 68.8 631.467 71.6 633.867 82.6667C636.133 93.7333 641.867 144.4 641.067 146.933C640.667 147.867 638.133 148.667 635.2 148.667C632.4 148.8 627.2 149.333 623.867 149.867L617.733 150.933L616.133 135.733C615.2 127.467 613.733 111.2 612.8 99.6C611.867 88 610.533 78.1333 610 77.6C609.467 77.0666 609.333 78.4 609.733 80.6667C610.133 82.8 610.933 90.6667 611.333 98C611.733 105.333 612.4 113.067 612.933 115.2L613.6 119.2L607.867 114.267C595.2 103.333 571.2 98.5333 552.933 103.333C548.667 104.4 544.533 105.333 543.867 105.333C542.4 105.333 542.4 105.2 556.4 87.3333C561.467 80.9333 565.333 75.4666 565.067 75.3333C564.8 75.0666 561.867 78.2666 558.533 82.5333L552.4 90.1333L536.533 92.5333C527.867 94 518.667 94.9333 516.133 94.9333C500 94.2667 496.133 72.2666 511.067 64.4C513.333 63.2 524.667 60 536 57.2C559.867 51.6 560.4 51.7333 559.733 63.3333ZM282.667 65.2C282.667 66 284.667 66.6667 287.2 66.6667C291.733 66.6667 291.867 66.8 291.067 71.3333C290.4 75.7333 290.533 76 294.267 76C298 76 301.333 74 301.333 71.7333C301.333 71.2 299.067 70.6667 296.4 70.6667C292.133 70.6667 291.733 70.4 293.333 68.8C294.4 67.8666 296.933 66.6666 298.8 66.1333C302.267 65.3333 302.667 65.8667 309.467 81.7333C317.867 101.333 319.067 109.467 314.8 116.533C308.933 126 290 131.333 278.267 126.8C272.8 124.667 275.067 127.467 281.733 131.067C286.4 133.467 289.333 134 300.267 134C307.333 133.867 313.6 133.467 314.133 133.067C314.533 132.533 313.733 130.533 312.133 128.533C308 123.2 308.8 121.6 313.333 126C315.6 128.133 317.333 130.667 317.333 131.6C317.333 139.2 323.733 122.533 326 108.933C326.4 106.267 327.333 104 328.133 104C328.8 104 329.067 106.267 328.533 109.6C327.467 116.8 321.6 135.6 320.267 136.267C319.733 136.533 317.867 140 316 144C312 152.667 304.4 162.533 298.667 166.667C294.933 169.333 294.133 169.467 291.067 167.867C281.333 162.667 245.467 113.6 248.933 110.133C249.467 109.733 247.867 109.333 245.467 109.333C237.867 109.333 229.333 102.933 229.333 97.2C229.333 96.1333 231.333 92.9333 233.733 90.1333L238 85.2L242.4 87.4667C249.067 90.8 257.733 89.3333 263.2 84.1333C267.6 79.8666 271.467 79.0667 276.4 81.4667C279.2 82.8 279.2 82.8 276.8 80.8C275.333 79.6 273.2 78.6667 272 78.6667C268.933 78.6667 268.133 77.6 268.933 74.5333C269.333 73.2 270.8 72 272.133 72C275.467 72 275.333 68 272 67.0666C270 66.5333 265.333 60.1333 265.333 57.8666C265.333 57.6 267.6 57.3333 270.4 57.0666C274.267 56.6666 276.133 57.3333 279.067 60.2666C281.067 62.2666 282.667 64.5333 282.667 65.2ZM204 133.467C215.467 136.533 233.6 145.2 257.067 158.667C298.8 182.533 356.267 226.667 398.133 266.933L408.8 277.333L425.2 278.667C448.267 280.533 471.333 286.4 487.067 294.267C492 296.667 494 297.067 496 296C502.8 292.4 505.333 277.067 500.8 268.133C497.067 261.2 487.867 253.067 473.733 244.267C456.4 233.733 447.6 224.267 423.2 190C400.4 158 400.8 158.667 402.4 158.667C403.2 158.667 413.067 171.733 424.533 187.6C435.867 203.6 448 219.867 451.467 223.733C455.2 228 464.267 235.067 474.533 241.867C493.733 254.4 501.733 262.667 504.667 272.267C507.467 281.733 505.733 289.067 499.067 296.267C496 299.467 495.867 300.267 497.067 306.267C497.867 309.733 498.4 313.6 498.267 314.667C498.133 315.733 499.2 322.533 500.533 329.867C503.467 345.333 502.933 373.6 499.333 388C495.733 402.933 487.867 417.333 478.667 425.733C455.733 447.067 417.733 452.667 388.267 439.333C380.533 435.867 364 425.333 364 423.867C364 423.467 365.467 422.4 367.333 421.6C369.2 420.667 371.067 419.2 371.467 418.267C372.533 415.333 338.533 336.4 311.067 278C294.667 243.467 269.067 191.867 268.4 192.4C268.133 192.667 277.467 212.4 289.2 236.133C316.267 291.333 358.267 383.467 356.933 384.8C356.667 385.067 354.4 384.667 351.867 383.867C349.333 383.067 337.467 382 325.467 381.6L303.6 380.667L286.533 330C277.2 302.133 262.933 259.733 254.8 235.6C245.6 208.533 240 189.867 240 186.533C240 178.667 243.067 173.733 249.2 171.867C253.467 170.533 255.067 170.8 260.133 173.067C268 176.533 290.533 196.8 324.667 231.2C365.867 272.533 397.867 309.867 431.467 356.133C440.133 368 448.933 378.8 451.2 380.133C459.467 385.2 466.933 382.267 469.467 372.933C470.933 367.467 470.267 334.267 468.533 327.333C468 324.933 468.533 324.133 471.067 323.467C483.733 320.4 491.867 298.4 481.867 294.667C477.2 292.8 477.333 292.667 477.333 298.667C477.333 301.6 477.867 304 478.4 304C479.067 304 480.533 304.8 482 305.733C484.267 307.467 484.267 307.867 481.2 313.2C471.6 330.267 454.133 322.933 448.8 299.467C447.867 295.733 447.867 295.6 452.667 296.4L457.467 297.2L457.067 291.733C456.667 285.867 456.533 285.733 445.733 283.6C441.6 282.8 441.333 282.933 441.333 286.533C441.333 291.733 442.533 294.667 444.8 294.667C445.867 294.667 446.667 295.467 446.667 296.4C446.667 305.733 456.4 321.467 463.333 323.2C467.6 324.267 468.4 328.933 468.533 354.4L468.667 374.933L464.8 378.267C461.733 380.8 460 381.333 456.8 380.8C451.2 379.6 447.2 375.467 432.533 355.067C389.733 296.133 338 238.8 280.667 186.933C260.8 168.8 250 165.467 242.133 174.8C236.667 181.2 237.333 189.2 245.467 212.8C268.933 281.333 301.333 378.133 301.333 379.6C301.333 380.933 298.133 381.333 288.4 381.333C261.2 381.333 218.267 386.8 202.533 392C198.133 393.6 192 396.267 189.067 398.133C186.133 400 183.467 401.2 183.067 400.8C180.267 398 144.667 254.933 138 220C130.667 181.2 133.067 160.4 146.667 144.8C158.133 131.733 181.333 127.2 204 133.467ZM639.467 151.067C639.467 151.2 640.667 155.333 641.867 160.4C644.8 171.2 644 177.467 639.067 181.333C634.933 184.533 625.2 185.067 622.667 182C620.8 179.733 622 177.2 624.667 178.133C626.133 178.8 626 177.733 624 173.733C622.267 170.133 622 168.4 623.067 167.733C623.867 167.2 624.267 166.533 623.867 166C623.467 165.6 621.6 166.533 619.733 167.867C617.2 169.867 616 170.133 614.933 169.067C612.267 166.4 613.067 164.267 618 160.533C620.533 158.667 622.667 155.867 622.667 154.533C622.667 152.933 624 151.733 626.4 151.2C628.4 150.8 630.667 150.267 631.333 150C632.533 149.6 639.2 150.533 639.467 151.067ZM565.333 187.467C564.667 200.533 564 223.2 564 237.6C564 252.133 563.6 264 563.067 263.867C562.133 263.733 541.6 241.6 532.8 231.333L529.067 226.933L542.667 202.533C561.067 169.733 565.467 162.4 566.133 163.067C566.4 163.333 566.133 174.267 565.333 187.467ZM643.2 183.6C643.6 184.933 644.267 189.467 644.8 193.867C645.6 201.467 645.6 201.6 642.667 200.667C641.067 200.133 635.867 198.667 631.2 197.333C620.133 194.133 620 194 620 187.867C620 183.067 620.267 182.667 622.533 184C626.4 186 635.067 185.6 638.133 183.333C641.467 180.8 642.4 180.8 643.2 183.6ZM520.8 375.6C529.467 387.2 542.267 402.267 548.933 409.2C555.733 416.133 561.333 422 561.333 422.133C561.333 422.267 559.733 422.667 557.733 423.067C555.6 423.467 548 427.467 540.667 431.867C527.6 439.733 515.867 444 507.2 444C501.867 444 499.467 446.8 499.733 452.667C499.867 456.667 499.467 457.333 496.8 457.333C494 457.333 493.333 456.4 492 450.267C491.067 446.533 488.933 438.933 487.067 433.6C483.867 424 483.867 424 486.4 420.267C495.867 406.933 502.267 387.067 503.6 366.933C504 360.267 504.533 354.667 504.667 354.667C504.8 354.667 512.133 364.133 520.8 375.6ZM177.2 387.6C178 390.4 178.667 393.333 178.667 394C178.667 394.8 172.4 398.533 164.8 402.267C157.2 406.133 148.8 411.067 146.267 413.2L141.6 417.333L136 410C132.8 405.867 130.533 402.4 130.8 402.133C135.467 398.533 171.333 382.8 174.933 382.667C175.467 382.667 176.533 384.933 177.2 387.6ZM353.2 386C358.533 388.4 359.333 389.6 363.333 399.333C365.867 405.2 367.6 410.133 367.467 410.4C367.2 410.533 364.8 409.733 362.133 408.667C351.867 404.4 331.2 402.267 298.667 402.133C265.6 402.133 252.933 403.2 226.667 408.8C206.133 413.2 199.333 415.6 194 420.133L189.6 424L186.8 414.8C185.2 409.733 184 404.933 184 404.133C184 403.467 186.533 401.2 189.733 399.333C209.333 387.867 247.467 382.667 308.667 383.067C344 383.333 347.867 383.6 353.2 386ZM185.2 414C190.667 432.133 191.2 432.667 205.6 434.667C210 435.333 213.867 436.133 214.133 436.4C214.533 436.667 213.067 438.8 211.2 441.067C207.867 444.8 207.067 445.067 201.2 444.4C196.133 443.733 194.133 444.133 191.067 446.4L187.333 449.067L175.733 443.2C164.8 437.467 147.867 424.667 144.8 419.6C143.6 417.733 144 416.667 147.333 414C152.133 410.133 177.333 397.067 179.067 397.733C179.733 397.867 182.533 405.333 185.2 414ZM137.467 413.867L141.067 417.867L138.267 423.2C134.8 429.733 133.733 442 136 448.667C138.4 456.133 146.267 464 155.333 468.133L163.333 471.733L156.8 474.533C153.333 476.133 141.2 481.6 130 486.8L109.467 496.267L105.6 493.467C92.5333 484.267 87.7333 466.667 92.6667 447.333C96.4 433.2 107.333 418.4 122.533 407.2L128.667 402.667L131.333 406.267C132.8 408.267 135.6 411.6 137.467 413.867ZM318.267 403.467L326.267 404.4L332 423.6L337.6 442.933L333.6 447.867C324.667 458.933 311.2 463.867 289.467 464C281.333 464 281.067 463.867 282 460.933C282.533 459.333 283.333 453.467 283.6 448L284.267 437.867L290.4 434.667C298.267 430.4 301.6 425.733 301.867 418.667C302 414 301.333 412.533 298.133 409.733C294.533 406.667 293.333 406.4 285.2 406.933C277.733 407.333 274 408.533 263.733 413.6C256.933 416.933 248.933 420.133 246 420.667C243.067 421.2 238 422.667 234.8 424.133C231.6 425.6 228.8 426.533 228.667 426.4C228.533 426.133 227.333 422.8 226 418.8C224.133 413.2 224 411.467 225.333 410.667C227.733 409.2 253.067 405.333 268 404.133C284.667 402.667 308.267 402.4 318.267 403.467ZM652 412.933C652 413.333 651.067 414.8 650 416C648.133 418.133 648.667 419.733 657.2 434.133C662.267 442.933 666.267 450.267 666 450.533C664.8 451.6 662.4 448.4 654.667 434.667C650 426.667 645.867 420 645.333 420C644.933 420 642.8 421.733 640.8 423.867L636.933 427.867L646 443.867C651.733 454 655.6 459.6 656.533 458.933C657.333 458.4 660.667 456.133 663.733 454L669.6 450.133L674.4 456C682.667 466.133 698.933 482.667 707.467 489.333C717.6 497.467 732.933 505.733 743.2 508.667C747.733 510 752.533 512.533 754.533 514.533L758 518L754.4 518.4C752.267 518.667 743.6 516.4 735.067 513.467C726.4 510.533 720.4 508.933 721.733 509.867C725.733 512.933 744.533 518.533 757.2 520.533C770.667 522.8 774.133 524.133 775.333 528C776.933 533.067 775.067 533.733 761.467 532.8C747.467 532 732.933 528.4 722.667 523.467C718.933 521.733 716 520.667 716 521.333C716 521.867 718.933 523.6 722.4 525.067C734.267 530.267 749.6 533.6 764.533 534.533C778.133 535.333 779.333 535.6 779.733 538.133C780.267 542 777.467 543.867 768.533 545.333C758.4 547.067 741.467 544.933 727.6 540.4C711.6 535.067 685.067 521.333 683.067 517.333C681.467 514.267 681.333 514.267 681.333 516.8C681.333 518.4 683.2 523.2 685.467 527.467C696.667 548.533 696.267 547.6 695.333 553.2C694.533 558.4 690.267 565.333 688 565.333C687.333 565.333 682.667 559.733 677.6 552.933C672.533 546.267 664.8 537.333 660.533 533.333L652.8 526L645.733 497.333C641.867 481.6 638.667 468.4 638.667 468C638.667 467.6 642 465.867 645.867 464.267L653.067 461.067L650.267 456.267C636.8 432.4 634.533 429.333 631.733 430.8C629.6 432 626.4 431.6 628.133 430.267C628.4 430 631.733 427.733 635.333 425.067C639.067 422.4 643.733 418.4 645.867 416.133C649.6 412.133 652 410.933 652 412.933ZM144 421.2C144 423.733 166.267 440.133 176.667 445.333L187.467 450.667L186.933 455.867C186.4 460.933 186.133 461.2 176.267 465.733L166.133 470.267L158.133 467.6C139.867 461.467 131.067 442.4 138.667 425.6C140.933 420.533 144 418 144 421.2ZM565.867 424.267C566.4 425.867 575.333 451.333 576.933 455.6C578.133 458.667 571.6 457.467 564.667 453.467C557.733 449.467 552.4 443.067 548.667 434.4L546.667 429.467L550.933 427.2C559.333 422.8 565.2 421.733 565.867 424.267ZM369.333 429.867C385.067 441.467 399.333 446.4 420.8 447.6L434.267 448.4L435.067 463.2C435.6 471.333 436.4 479.467 436.8 481.2L437.733 484.4L413.2 483.467C399.733 482.933 386.267 482.267 383.333 481.867L378 481.067V464.267C378 449.2 377.6 446.667 374.933 441.733C368.133 428.8 352.667 426 343.2 435.733C340.667 438.267 338.4 440.133 338.267 439.867C338 439.6 337.2 437.067 336.4 434.267C335.2 430.4 335.2 429.067 336.4 428.8C338.667 428.133 357.733 424.4 359.6 424.133C360.533 424.133 364.933 426.667 369.333 429.867ZM546.667 433.067C546.667 436.8 553.733 446.933 559.467 451.733C562.267 454.133 567.733 456.933 571.6 458.133C575.333 459.2 578.8 461.2 579.333 462.4C583.867 473.6 586.4 482.667 584.8 482.667C582 482.667 573.2 476.133 566.4 469.2C561.333 463.867 559.333 462.667 555.467 462.667C548.933 462.667 545.333 467.467 545.333 476.533C545.333 486.267 550.533 496 561.2 506.667C570.933 516.267 580.667 522.133 592.533 525.333L600.4 527.467L604.133 540.8L607.867 554L604.533 563.6C599.467 578.4 600.667 593.733 607.333 598.133C611.867 601.2 615.467 598.8 616.667 591.867C617.2 588.933 618 586.8 618.4 587.2C618.8 587.733 620.8 592.4 622.933 597.6C626.267 606.4 626.4 607.333 624.4 608.533C623.2 609.2 620.8 611.2 619.2 612.933L616.267 616.133L605.067 601.2L594 586.267V574.8C594 563.867 593.733 562.933 589.2 556C580.667 542.8 572.4 535.467 562.133 532C553.333 529.2 552.933 528.8 549.867 522.133C548.267 518.4 544.933 508.4 542.667 500C537.867 482.4 537.467 481.467 527.333 471.867C519.467 464.4 514 456.533 512 449.6C510.8 444.933 512 444 519.333 444C524 444 527.6 446.8 535.867 457.2C538.933 461.2 541.067 462.667 543.2 462.4C547.467 461.733 547.333 457.2 542.8 449.067C537.867 440.4 537.6 435.733 541.733 432.933C545.6 430.133 546.667 430.133 546.667 433.067ZM235.333 438.133C233.467 441.067 230 444.8 227.867 446.4C224 449.6 223.867 449.733 224.8 459.467C225.733 469.333 225.2 470.667 221.2 467.6C213.733 461.733 210.4 458.267 210 455.6C209.867 454 209.2 451.067 208.8 449.2C207.867 446 208.533 445.467 217.6 440.667C226.4 436 237.333 431.733 238.4 432.667C238.667 432.8 237.2 435.333 235.333 438.133ZM376 447.867C376.8 451.2 377.067 459.733 376.533 470.933C375.333 494.933 375.333 496.267 378.533 502.533C384.933 514.8 386.8 533.6 383.467 552L382 560.667L375.333 561.6C371.733 562 362.667 564.267 355.467 566.533C343.067 570.4 311.6 574.8 309.733 572.8C309.333 572.4 310.933 568.933 313.333 565.067C326.933 542.8 347.2 527.867 372.8 521.333C380.667 519.333 381.733 518.8 376.933 519.467C368.267 520.4 357.333 524.4 346.8 530.267C335.467 536.533 317.867 554 311.867 564.933C307.6 572.8 306.933 573.467 300 575.467C296 576.667 291.867 578.267 290.933 578.933C287.867 581.6 287.6 578.8 290.667 573.067C295.733 563.2 303.6 553.867 313.867 545.467C326.933 534.8 330 530.4 330 522.4C330 498.8 292.667 503.733 264.533 530.933L257.6 537.6L252.933 529.2C247.467 519.333 242.667 508.533 242.667 506C242.667 504.267 248.8 498.667 250.667 498.667C251.2 498.667 252.267 500.133 253.067 501.867C255.467 507.2 263.067 514.933 267.733 516.933C277.067 520.8 285.333 513.867 285.333 502.4C285.333 498.267 283.2 489.867 280.667 483.6C279.867 481.6 280.667 481.333 289.867 481.333C311.6 481.333 334.267 473.067 345.067 461.2C361.2 443.467 362.267 442.667 368.667 442.667C374.4 442.667 374.667 442.8 376 447.867ZM479.733 457.467L501.467 459.067L503.467 462.933C504.533 465.067 510.667 472.4 517.2 479.067C528.4 490.933 528.933 491.733 532 502.667C533.733 508.933 536.533 517.067 538.133 520.933L541.067 527.867L533.2 527.733C528.667 527.733 524.533 528.4 523.333 529.333C521.733 530.667 516.133 530.533 493.867 528.667C462.267 525.867 466.4 528.4 460.533 508C456.667 494.8 453.6 478.133 452.4 464.133L451.6 454.267L454.8 455.067C456.533 455.467 467.733 456.533 479.733 457.467ZM191.733 466.8C194 468.533 196.267 469.2 198.4 468.667C200.933 468 203.2 469.6 210.8 476.933C219.067 484.8 220.4 485.733 222.667 484.267C224.933 482.933 225.333 483.2 226 487.733C226.533 490.4 227.2 493.6 227.467 494.8C228.533 498.533 203.2 515.733 181.467 526.267C153.6 539.733 131.333 528 139.333 504.133C141.467 497.733 142.267 496.933 159.733 484.8C169.733 477.867 180.133 470.267 182.667 468.133C185.2 465.867 187.6 464.133 187.733 464C188 464 189.867 465.2 191.733 466.8ZM412.933 484.8C433.733 485.6 437.333 486 437.867 487.867C438.133 489.067 439.467 494.8 440.667 500.667C444.8 520 454.533 544 462.267 554.4C464.133 556.8 465.333 559.2 464.933 559.467C464.267 560.133 421.867 555.733 411.2 554C407.2 553.333 406.667 552.533 402.667 541.067C397.867 527.067 389.067 509.467 381.6 498.267C377.6 492.4 376.533 489.733 377.067 486.533C377.6 482.533 377.867 482.4 383.2 483.2C386.133 483.6 399.6 484.267 412.933 484.8ZM548.4 538.533C565.2 542.933 570.4 546.533 581.867 561.733C584.933 565.867 586.667 569.6 586.667 572.267C586.667 576.4 586.667 576.4 584 574C582.4 572.667 581.6 570.667 582 569.6C582.4 568.533 581.733 566.133 580.667 564.4C578.933 561.733 578.133 561.467 576.533 562.8C573.6 565.2 570.267 562 572.133 558.4C573.333 556.267 573.067 555.2 571.467 553.6C569.6 551.733 569.067 551.733 566.4 554.4C562.267 558.267 559.333 556.533 560.667 550.8C561.333 547.6 561.067 546.667 559.6 546.667C558.4 546.667 556.667 546.4 555.733 546C554.533 545.467 553.2 546.533 552.267 548.533C551.067 551.2 550.133 551.733 548 550.933C546.4 550.4 544.4 548.4 543.6 546.667C541.467 542.4 538 541.867 535.067 545.2C532.667 548.133 528.667 548.8 525.467 546.8C522.8 545.067 525.867 540.267 531.067 538C536.533 535.6 536.533 535.6 548.4 538.533ZM631.2 614.133C634.133 617.6 636.933 619.2 640.533 619.867C643.733 620.4 646.4 621.733 647.6 623.6C649.6 626.533 649.467 626.667 643.333 629.333C634.4 633.2 626.533 630.533 620 621.333L617.2 617.333L621.2 613.333C623.333 611.067 625.6 609.333 626.133 609.333C626.667 609.333 628.933 611.467 631.2 614.133Z" fill="#FFB21D"/>
<path d="M579.333 530.8C578.8 531.467 581.6 535.6 585.6 540C596.8 552.267 600.667 552.267 599.733 540.267C599.333 535.2 598.267 532.4 596.667 531.2C593.733 529.067 580.533 528.667 579.333 530.8Z" fill="#FFB21D"/>
<path d="M178.8 479.867L174.267 483.6L184.667 493.467C190.4 498.933 195.467 503.333 195.867 503.333C196.4 503.333 198.8 501.6 201.333 499.6L205.733 495.867L203.067 492.267C200.533 488.8 185.467 476 184 476C183.6 476 181.333 477.733 178.8 479.867Z" fill="#FFB21D"/>
<path d="M157.333 497.333L152.667 501.2L161.867 510.533L171.2 520L175.2 516.8C177.333 515.2 179.467 513.067 179.6 512.4C180.133 510.933 164.533 493.333 162.8 493.333C162.4 493.333 159.867 495.2 157.333 497.333Z" fill="#FFB21D"/>
<path d="M211.867 545.467C189.467 556.4 188.8 557.867 203.067 568.4C216.934 578.667 217.867 579.067 221.067 576.267C224.267 573.467 233.334 550.8 233.334 545.6C233.334 541.467 231.2 538.667 228 538.667C226.8 538.667 219.467 541.733 211.867 545.467ZM230.667 542C231.6 543.2 232 545.867 231.6 548.4C230.534 554.8 221.467 575.733 219.334 576.533C216.8 577.467 194.667 561.333 194.667 558.4C194.667 556.667 199.2 553.733 210.4 548.133C218.934 543.733 226.667 540.133 227.467 540.133C228.267 540 229.734 540.933 230.667 542Z" fill="#FFB21D"/>
</svg>
